# https://github.com/mikedh/trimesh
v -0.02280533 0.00050000 0.01900000
v -0.02280533 0.00050000 -0.01900000
v -0.02280533 0.00000000 0.01925000
v -0.02280533 0.00000000 -0.01925000
v -0.02280533 -0.00050000 0.01900000
v -0.02280533 -0.00050000 -0.01900000
v -0.01183568 0.01950000 -0.01900000
v -0.01183568 0.01950000 0.01900000
v -0.01140267 0.01975000 -0.01925000
v -0.01140267 0.01975000 0.01925000
v -0.01096965 0.02000000 -0.01900000
v -0.01096965 0.02000000 0.01900000
v 0.01096966 0.02000000 -0.01900000
v 0.01096966 0.02000000 0.01900000
v 0.01140267 0.01975000 -0.01925000
v 0.01140267 0.01975000 0.01925000
v 0.01183568 0.01950000 -0.01900000
v 0.01183568 0.01950000 0.01900000
v 0.02280533 -0.00050000 0.01900000
v 0.02280533 -0.00050000 -0.01900000
v 0.02280533 0.00000000 0.01925000
v 0.02280533 0.00000000 -0.01925000
v 0.02280533 0.00050000 0.01900000
v 0.02280533 0.00050000 -0.01900000
v 0.01183568 -0.01950000 -0.01900000
v 0.01183568 -0.01950000 0.01900000
v 0.01140267 -0.01975000 -0.01925000
v 0.01140267 -0.01975000 0.01925000
v 0.01096966 -0.02000000 -0.01900000
v 0.01096966 -0.02000000 0.01900000
v -0.01096965 -0.02000000 -0.01900000
v -0.01096965 -0.02000000 0.01900000
v -0.01140267 -0.01975000 -0.01925000
v -0.01140267 -0.01975000 0.01925000
v -0.01183568 -0.01950000 -0.01900000
v -0.01183568 -0.01950000 0.01900000
v 0.01096966 -0.01900000 0.02000000
v 0.02193931 0.00000000 0.02000000
v -0.01096965 -0.01900000 0.02000000
v 0.01096966 0.01900000 0.02000000
v -0.02193931 0.00000000 0.02000000
v -0.01096965 0.01900000 0.02000000
v 0.02193931 0.00000000 -0.02000000
v 0.01096966 -0.01900000 -0.02000000
v 0.01096966 0.01900000 -0.02000000
v -0.01096965 -0.01900000 -0.02000000
v -0.01096965 0.01900000 -0.02000000
v -0.02193931 0.00000000 -0.02000000
f 1 2 3
f 3 2 4
f 3 4 5
f 5 4 6
f 7 8 9
f 9 8 10
f 9 10 11
f 11 10 12
f 13 14 15
f 15 14 16
f 15 16 17
f 17 16 18
f 19 20 21
f 21 20 22
f 21 22 23
f 23 22 24
f 25 26 27
f 27 26 28
f 27 28 29
f 29 28 30
f 31 32 33
f 33 32 34
f 33 34 35
f 35 34 36
f 19 26 20
f 20 26 25
f 18 23 17
f 17 23 24
f 12 14 11
f 11 14 13
f 1 8 2
f 2 8 7
f 6 35 5
f 5 35 36
f 30 32 29
f 29 32 31
f 37 38 39
f 39 38 40
f 39 40 41
f 41 40 42
f 43 44 45
f 45 44 46
f 45 46 47
f 47 46 48
f 12 10 42
f 12 42 14
f 14 42 40
f 14 40 16
f 1 3 41
f 1 41 8
f 8 41 42
f 8 42 10
f 16 40 18
f 18 40 38
f 18 38 23
f 23 38 21
f 34 39 36
f 36 39 41
f 36 41 5
f 5 41 3
f 19 21 38
f 19 38 26
f 26 38 37
f 26 37 28
f 30 28 37
f 30 37 32
f 32 37 39
f 32 39 34
f 6 4 48
f 6 48 35
f 35 48 46
f 35 46 33
f 33 46 31
f 31 46 44
f 31 44 29
f 29 44 27
f 7 9 47
f 7 47 2
f 2 47 48
f 2 48 4
f 27 44 25
f 25 44 43
f 25 43 20
f 20 43 22
f 15 45 13
f 13 45 47
f 13 47 11
f 11 47 9
f 22 43 24
f 24 43 45
f 24 45 17
f 17 45 15
