# https://github.com/mikedh/trimesh

o 六棱柱hammer(1).obj
v 0.01104700 -0.10650000 0.00086603
v 0.01104700 0.07750000 0.00086603
v 0.00627350 -0.10650000 0.00913398
v 0.00712436 0.07750000 0.00766025
v 0.00627350 0.07835085 0.00913398
v 0.01104700 0.07750000 -0.00086602
v 0.01104700 -0.10650000 -0.00086602
v 0.00712436 0.07750000 -0.00766025
v 0.00627350 -0.10650000 -0.00913398
v 0.00627350 0.07835085 -0.00913398
v 0.00477350 -0.10650000 -0.01000000
v -0.00477350 -0.10650000 -0.01000000
v 0.00477350 0.07982051 -0.01000000
v -0.00477350 0.07982051 -0.01000000
v -0.01104701 -0.10650000 -0.00086602
v -0.01104701 0.07750000 -0.00086602
v -0.00627350 -0.10650000 -0.00913398
v -0.00712436 0.07750000 -0.00766025
v -0.00627350 0.07835085 -0.00913398
v -0.01104701 0.07750000 0.00086603
v -0.01104701 -0.10650000 0.00086603
v -0.00712436 0.07750000 0.00766025
v -0.00627350 -0.10650000 0.00913398
v -0.00627350 0.07835085 0.00913398
v 0.00477350 0.07982051 0.01000000
v -0.00477350 0.07982051 0.01000000
v 0.00477350 -0.10650000 0.01000000
v -0.00477350 -0.10650000 0.01000000
v 0.00519615 -0.10750000 0.00900000
v -0.00519615 -0.10750000 0.00900000
v 0.01039230 -0.10750000 0.00000000
v -0.01039230 -0.10750000 0.00000000
v 0.00519615 -0.10750000 -0.00900000
v -0.00519615 -0.10750000 -0.00900000
v -0.00622799 0.07836603 -0.00916025
v -0.02400000 0.07836603 -0.00916025
v -0.02400000 0.09163397 -0.01682051
v 0.02400000 0.09163397 -0.01682051
v 0.00622799 0.07836603 -0.00916025
v 0.02400000 0.07836603 -0.00916025
v 0.02400000 0.07750000 -0.00766025
v 0.02400000 0.07750000 0.00766025
v -0.02400000 0.07750000 -0.00766025
v -0.02400000 0.07750000 0.00766025
v 0.00622799 0.07836603 0.00916025
v 0.02400000 0.07836603 0.00916025
v 0.02400000 0.09163397 0.01682051
v -0.02400000 0.09163397 0.01682051
v -0.00622799 0.07836603 0.00916025
v -0.02400000 0.07836603 0.00916025
v 0.02400000 0.09336603 -0.01682051
v -0.02400000 0.09336603 -0.01682051
v 0.02400000 0.10663397 -0.00916025
v -0.02400000 0.10663397 -0.00916025
v 0.02400000 0.10750000 -0.00766025
v -0.02400000 0.10750000 -0.00766025
v 0.02400000 0.10750000 0.00766025
v -0.02400000 0.10750000 0.00766025
v 0.02400000 0.10663397 0.00916025
v -0.02400000 0.10663397 0.00916025
v 0.02400000 0.09336603 0.01682051
v -0.02400000 0.09336603 0.01682051
v 0.02500000 0.10650000 -0.00808290
v 0.02500000 0.10650000 0.00808290
v 0.02500000 0.09250000 -0.01616581
v 0.02500000 0.09250000 0.01616581
v 0.02500000 0.07850000 -0.00808290
v 0.02500000 0.07850000 0.00808290
v -0.02500000 0.07850000 -0.00808290
v -0.02500000 0.07850000 0.00808290
v -0.02500000 0.09250000 -0.01616581
v -0.02500000 0.09250000 0.01616581
v -0.02500000 0.10650000 -0.00808290
v -0.02500000 0.10650000 0.00808290
vn 0.90151687 -0.33998606 0.26772525
vn 0.61599775 -0.77026181 0.16505611
vn 0.68261513 -0.33998607 0.64687407
vn 0.61719642 -0.55529462 0.55741947
vn 0.34697760 -0.58350278 0.73425544
vn 0.61599776 -0.77026180 -0.16505609
vn 0.90151691 -0.33998597 -0.26772524
vn 0.61719643 -0.55529436 -0.55741971
vn 0.68261522 -0.33998602 -0.64687400
vn 0.34697524 -0.58353604 -0.73423012
vn 0.21890137 -0.33998591 -0.91459924
vn -0.21890137 -0.33998591 -0.91459924
vn 0.06993943 -0.32630263 -0.94267442
vn -0.06993949 -0.32630264 -0.94267442
vn -0.90151689 -0.33998598 -0.26772528
vn -0.61599774 -0.77026181 -0.16505612
vn -0.68261519 -0.33998602 -0.64687403
vn -0.61719633 -0.55529453 -0.55741966
vn -0.34698598 -0.58351186 -0.73424426
vn -0.61599772 -0.77026182 0.16505614
vn -0.90151686 -0.33998606 0.26772529
vn -0.61719651 -0.55529440 0.55741959
vn -0.68261510 -0.33998606 0.64687410
vn -0.34696594 -0.58352894 0.73424016
vn 0.06993956 -0.32630269 0.94267439
vn -0.06993956 -0.32630269 0.94267439
vn 0.21890127 -0.33998593 0.91459926
vn -0.21890127 -0.33998593 0.91459926
vn 0.24759186 -0.86878816 0.42884194
vn -0.24759185 -0.86878816 0.42884195
vn 0.49518396 -0.86878815 -0.00000005
vn -0.49518396 -0.86878815 -0.00000006
vn 0.24759192 -0.86878812 -0.42884198
vn -0.24759191 -0.86878812 -0.42884198
vn -0.30321730 -0.28020986 -0.91079180
vn -0.33998597 -0.64687355 -0.68261566
vn -0.33998658 -0.26772536 -0.90151665
vn 0.33998664 -0.26772538 -0.90151661
vn 0.30321458 -0.28020978 -0.91079273
vn 0.33998606 -0.64687351 -0.68261566
vn 0.33998620 -0.91459900 -0.21890192
vn 0.33998617 -0.91459901 0.21890194
vn -0.33998618 -0.91459901 -0.21890192
vn -0.33998613 -0.91459902 0.21890194
vn 0.30321300 -0.28020615 0.91079437
vn 0.33998576 -0.64687359 0.68261574
vn 0.33998662 -0.26772534 0.90151663
vn -0.33998665 -0.26772539 0.90151661
vn -0.30321013 -0.28020600 0.91079537
vn -0.33998580 -0.64687354 0.68261576
vn 0.33998661 0.26772535 -0.90151664
vn -0.33998662 0.26772538 -0.90151662
vn 0.33998601 0.64687355 -0.68261565
vn -0.33998602 0.64687352 -0.68261567
vn 0.33998620 0.91459900 -0.21890192
vn -0.33998617 0.91459901 -0.21890192
vn 0.33998616 0.91459901 0.21890194
vn -0.33998613 0.91459902 0.21890194
vn 0.33998581 0.64687354 0.68261576
vn -0.33998574 0.64687360 0.68261574
vn 0.33998667 0.26772539 0.90151660
vn -0.33998659 0.26772534 0.90151664
vn 0.86878811 0.42884187 -0.24759216
vn 0.86878800 0.42884194 0.24759241
vn 0.86878845 -0.00000003 -0.49518343
vn 0.86878847 0.00000005 0.49518340
vn 0.86878811 -0.42884185 -0.24759218
vn 0.86878800 -0.42884196 0.24759237
vn -0.86878809 -0.42884189 -0.24759217
vn -0.86878799 -0.42884196 0.24759242
vn -0.86878843 0.00000003 -0.49518346
vn -0.86878845 -0.00000005 0.49518343
vn -0.86878809 0.42884188 -0.24759220
vn -0.86878799 0.42884198 0.24759238
f 1//1 2//2 3//3
f 3//3 2//2 4//4
f 3//3 4//4 5//5
f 6//6 7//7 8//8
f 8//8 7//7 9//9
f 8//8 9//9 10//10
f 11//11 12//12 13//13
f 13//13 12//12 14//14
f 15//15 16//16 17//17
f 17//17 16//16 18//18
f 17//17 18//18 19//19
f 20//20 21//21 22//22
f 22//22 21//21 23//23
f 22//22 23//23 24//24
f 25//25 26//26 27//27
f 27//27 26//26 28//28
f 29//29 30//30 31//31
f 31//31 30//30 32//32
f 31//31 32//32 33//33
f 33//33 32//32 34//34
f 35//35 36//36 14//14
f 14//14 36//36 37//37
f 14//14 37//37 13//13
f 13//13 37//37 38//38
f 13//13 38//38 39//39
f 39//39 38//38 40//40
f 6//6 8//8 41//41
f 6//6 41//41 2//2
f 2//2 41//41 42//42
f 2//2 42//42 4//4
f 43//43 18//18 16//16
f 43//43 16//16 44//44
f 44//44 16//16 20//20
f 44//44 20//20 22//22
f 45//45 46//46 25//25
f 25//25 46//46 47//47
f 25//25 47//47 26//26
f 26//26 47//47 48//48
f 26//26 48//48 49//49
f 49//49 48//48 50//50
f 51//51 52//52 53//53
f 53//53 52//52 54//54
f 55//55 56//56 57//57
f 57//57 56//56 58//58
f 59//59 60//60 61//61
f 61//61 60//60 62//62
f 63//63 64//64 65//65
f 65//65 64//64 66//66
f 65//65 66//66 67//67
f 67//67 66//66 68//68
f 69//69 70//70 71//71
f 71//71 70//70 72//72
f 71//71 72//72 73//73
f 73//73 72//72 74//74
f 24//24 23//23 49//49
f 49//49 23//23 28//28
f 49//49 28//28 26//26
f 15//15 21//21 16//16
f 16//16 21//21 20//20
f 21//21 32//32 23//23
f 23//23 32//32 30//30
f 23//23 30//30 28//28
f 21//21 15//15 32//32
f 29//29 27//27 30//30
f 30//30 27//27 28//28
f 3//3 5//5 27//27
f 27//27 5//5 45//45
f 27//27 45//45 25//25
f 17//17 19//19 12//12
f 12//12 19//19 35//35
f 12//12 35//35 14//14
f 17//17 34//34 15//15
f 15//15 34//34 32//32
f 27//27 29//29 3//3
f 17//17 12//12 34//34
f 31//31 1//1 29//29
f 29//29 1//1 3//3
f 1//1 7//7 2//2
f 2//2 7//7 6//6
f 10//10 9//9 39//39
f 39//39 9//9 11//11
f 39//39 11//11 13//13
f 11//11 33//33 12//12
f 12//12 33//33 34//34
f 1//1 31//31 7//7
f 11//11 9//9 33//33
f 33//33 9//9 31//31
f 31//31 9//9 7//7
f 37//37 52//52 38//38
f 38//38 52//52 51//51
f 38//38 51//51 65//65
f 52//52 37//37 71//71
f 53//53 63//63 51//51
f 51//51 63//63 65//65
f 67//67 40//40 65//65
f 65//65 40//40 38//38
f 41//41 8//8 40//40
f 40//40 8//8 10//10
f 40//40 10//10 39//39
f 36//36 35//35 43//43
f 43//43 35//35 19//19
f 43//43 19//19 18//18
f 36//36 69//69 37//37
f 37//37 69//69 71//71
f 73//73 54//54 71//71
f 71//71 54//54 52//52
f 54//54 56//56 53//53
f 53//53 56//56 55//55
f 53//53 55//55 63//63
f 40//40 67//67 41//41
f 36//36 43//43 69//69
f 54//54 73//73 56//56
f 57//57 64//64 55//55
f 55//55 64//64 63//63
f 68//68 42//42 67//67
f 67//67 42//42 41//41
f 46//46 45//45 42//42
f 42//42 45//45 5//5
f 42//42 5//5 4//4
f 44//44 22//22 50//50
f 50//50 22//22 24//24
f 50//50 24//24 49//49
f 44//44 70//70 43//43
f 43//43 70//70 69//69
f 74//74 58//58 73//73
f 73//73 58//58 56//56
f 58//58 60//60 57//57
f 57//57 60//60 59//59
f 57//57 59//59 64//64
f 42//42 68//68 46//46
f 44//44 50//50 70//70
f 58//58 74//74 60//60
f 61//61 66//66 59//59
f 59//59 66//66 64//64
f 66//66 47//47 68//68
f 68//68 47//47 46//46
f 48//48 72//72 50//50
f 50//50 72//72 70//70
f 72//72 62//62 74//74
f 74//74 62//62 60//60
f 66//66 61//61 47//47
f 72//72 48//48 62//62
f 62//62 48//48 61//61
f 61//61 48//48 47//47

