# https://github.com/mikedh/trimesh
v -0.01104701 -0.10650000 -0.00086602
v -0.01104701 -0.10650000 0.00086603
v -0.01104701 0.07750000 -0.00086602
v -0.01104701 0.07750000 0.00086603
v -0.01039230 -0.10750000 0.00000000
v -0.00712436 0.07750000 -0.00766025
v -0.00712436 0.07750000 0.00766025
v -0.00627350 -0.10650000 -0.00913398
v -0.00627350 -0.10650000 0.00913398
v -0.00627350 0.07835085 -0.00913398
v -0.00627350 0.07835085 0.00913398
v -0.00519615 -0.10750000 -0.00900000
v -0.00519615 -0.10750000 0.00900000
v -0.00477350 -0.10650000 -0.01000000
v -0.00477350 -0.10650000 0.01000000
v -0.00477350 0.07982051 -0.01000000
v -0.00477350 0.07982051 0.01000000
v 0.00477350 -0.10650000 -0.01000000
v 0.00477350 -0.10650000 0.01000000
v 0.00477350 0.07982051 -0.01000000
v 0.00477350 0.07982051 0.01000000
v 0.00519615 -0.10750000 -0.00900000
v 0.00519615 -0.10750000 0.00900000
v 0.00627350 -0.10650000 -0.00913398
v 0.00627350 -0.10650000 0.00913398
v 0.00627350 0.07835085 -0.00913398
v 0.00627350 0.07835085 0.00913398
v 0.00712436 0.07750000 -0.00766025
v 0.00712436 0.07750000 0.00766025
v 0.01039230 -0.10750000 0.00000000
v 0.01104700 -0.10650000 -0.00086602
v 0.01104700 -0.10650000 0.00086603
v 0.01104700 0.07750000 -0.00086602
v 0.01104700 0.07750000 0.00086603
f 6 8 1
f 1 3 6
f 11 17 4
f 20 33 26
f 28 33 31
f 31 24 28
f 26 33 28
f 28 24 26
f 8 6 10
f 10 3 16
f 10 6 3
f 25 32 29
f 27 25 29
f 7 9 11
f 4 2 7
f 11 4 7
f 7 2 9
f 5 2 1
f 27 29 34
f 34 21 27
f 34 29 32
f 25 19 23
f 30 24 31
f 31 32 30
f 30 32 25
f 25 23 30
f 9 2 13
f 2 5 13
f 15 9 13
f 12 8 14
f 1 8 12
f 12 5 1
f 22 18 24
f 24 30 22
f 17 9 15
f 11 9 17
f 4 17 16
f 16 3 4
f 14 8 10
f 16 14 10
f 2 4 3
f 2 3 1
f 18 14 16
f 16 20 18
f 26 24 18
f 18 20 26
f 16 17 21
f 21 20 16
f 21 19 25
f 21 25 27
f 21 17 15
f 15 19 21
f 20 21 34
f 33 20 34
f 31 33 34
f 34 32 31
f 13 19 15
f 13 23 19
f 14 18 22
f 22 12 14
f 22 13 5
f 22 30 23
f 23 13 22
f 5 12 22

