# https://github.com/mikedh/trimesh
v -0.02500000 0.07850000 -0.00808290
v -0.02500000 0.07850000 0.00808290
v -0.02500000 0.09250000 -0.01616581
v -0.02500000 0.09250000 0.01616581
v -0.02500000 0.10650000 -0.00808290
v -0.02500000 0.10650000 0.00808290
v -0.02400000 0.07750000 -0.00766025
v -0.02400000 0.07750000 0.00766025
v -0.02400000 0.07836603 -0.00916025
v -0.02400000 0.07836603 0.00916025
v -0.02400000 0.09163397 -0.01682051
v -0.02400000 0.09163397 0.01682051
v -0.02400000 0.09336603 -0.01682051
v -0.02400000 0.09336603 0.01682051
v -0.02400000 0.10663397 -0.00916025
v -0.02400000 0.10663397 0.00916025
v -0.02400000 0.10750000 -0.00766025
v -0.02400000 0.10750000 0.00766025
v -0.00627350 0.07835085 -0.00913398
v -0.00627350 0.07835085 0.00913398
v -0.00477350 0.07982051 -0.01000000
v -0.00477350 0.07982051 0.01000000
v 0.00477350 0.07982051 -0.01000000
v 0.00477350 0.07982051 0.01000000
v 0.00627350 0.07835085 -0.00913398
v 0.00627350 0.07835085 0.00913398
v 0.02400000 0.07750000 -0.00766025
v 0.02400000 0.07750000 0.00766025
v 0.02400000 0.07836603 -0.00916025
v 0.02400000 0.07836603 0.00916025
v 0.02400000 0.09163397 -0.01682051
v 0.02400000 0.09163397 0.01682051
v 0.02400000 0.09336603 -0.01682051
v 0.02400000 0.09336603 0.01682051
v 0.02400000 0.10663397 -0.00916025
v 0.02400000 0.10663397 0.00916025
v 0.02400000 0.10750000 -0.00766025
v 0.02400000 0.10750000 0.00766025
v 0.02500000 0.07850000 -0.00808290
v 0.02500000 0.07850000 0.00808290
v 0.02500000 0.09250000 -0.01616581
v 0.02500000 0.09250000 0.01616581
v 0.02500000 0.10650000 -0.00808290
v 0.02500000 0.10650000 0.00808290
f 32 42 34
f 4 2 12
f 15 5 17
f 13 5 15
f 3 5 13
f 40 42 32
f 12 2 10
f 10 2 8
f 11 3 13
f 1 3 11
f 11 9 1
f 39 31 41
f 33 41 31
f 6 4 14
f 14 4 12
f 39 27 29
f 29 31 39
f 1 9 7
f 28 40 30
f 30 40 32
f 16 18 6
f 6 14 16
f 44 38 36
f 36 34 44
f 44 34 42
f 9 11 21
f 19 7 9
f 12 10 22
f 20 10 8
f 35 37 43
f 43 33 35
f 41 33 43
f 31 29 23
f 25 29 27
f 24 30 32
f 28 30 26
f 18 5 6
f 17 5 18
f 3 4 6
f 1 2 3
f 6 5 3
f 2 4 3
f 28 27 40
f 40 27 39
f 33 15 35
f 13 15 33
f 33 11 13
f 31 11 33
f 32 34 14
f 12 32 14
f 35 15 37
f 37 15 17
f 17 18 37
f 18 38 37
f 7 27 28
f 7 28 8
f 7 2 1
f 8 2 7
f 16 38 18
f 36 38 16
f 16 14 34
f 16 34 36
f 43 40 39
f 42 40 43
f 39 41 43
f 43 44 42
f 43 37 38
f 38 44 43
f 23 11 31
f 23 21 11
f 23 29 9
f 9 21 23
f 27 7 25
f 7 19 25
f 9 29 25
f 25 19 9
f 24 32 12
f 12 22 24
f 10 30 24
f 24 22 10
f 8 28 26
f 26 20 8
f 26 30 10
f 10 20 26

